<?xml version="1.0" encoding="UTF-8" standalone="no"?>
<!-- Created with Inkscape (http://www.inkscape.org/) -->

<svg
   xmlns:dc="http://purl.org/dc/elements/1.1/"
   xmlns:cc="http://creativecommons.org/ns#"
   xmlns:rdf="http://www.w3.org/1999/02/22-rdf-syntax-ns#"
   xmlns:svg="http://www.w3.org/2000/svg"
   xmlns="http://www.w3.org/2000/svg"
   xmlns:sodipodi="http://sodipodi.sourceforge.net/DTD/sodipodi-0.dtd"
   xmlns:inkscape="http://www.inkscape.org/namespaces/inkscape"
   width="150"
   height="150"
   id="svg2"
   version="1.1"
   inkscape:version="0.48.0 r9654"
   sodipodi:docname="tiles1.svg">
  <defs
     id="defs4" />
  <sodipodi:namedview
     id="base"
     pagecolor="#000000"
     bordercolor="#666666"
     borderopacity="1.0"
     inkscape:pageopacity="0.57254902"
     inkscape:pageshadow="2"
     inkscape:zoom="2.8284271"
     inkscape:cx="133.02211"
     inkscape:cy="75.089034"
     inkscape:document-units="px"
     inkscape:current-layer="layer1"
     showgrid="false"
     showguides="true"
     inkscape:guide-bbox="true"
     inkscape:window-width="1680"
     inkscape:window-height="1022"
     inkscape:window-x="0"
     inkscape:window-y="0"
     inkscape:window-maximized="1">
    <inkscape:grid
       type="xygrid"
       id="grid3753"
       empspacing="5"
       visible="true"
       enabled="true"
       snapvisiblegridlinesonly="true" />
  </sodipodi:namedview>
  <metadata
     id="metadata7">
    <rdf:RDF>
      <cc:Work
         rdf:about="">
        <dc:format>image/svg+xml</dc:format>
        <dc:type
           rdf:resource="http://purl.org/dc/dcmitype/StillImage" />
        <dc:title></dc:title>
      </cc:Work>
    </rdf:RDF>
  </metadata>
  <g
     inkscape:label="Ebene 1"
     inkscape:groupmode="layer"
     id="layer1"
     transform="translate(0,-902.36218)">
    <path
       style="fill:#ffffff;fill-opacity:1;stroke:none"
       d="m 0,940.61218 8.875,-36.875 8.125,36.875 8.875,-36.875 10,36.875 7.25,-36.875 6.875,36.875 0,11.75 -50,0 z"
       id="rect3755"
       inkscape:connector-curvature="0"
       sodipodi:nodetypes="cccccccccc"
       inkscape:export-filename="/home/samuel/Dropbox/ETH/eprog/serie10/A10/gfx/tiles/bw/spikes.png"
       inkscape:export-xdpi="90"
       inkscape:export-ydpi="90" />
    <rect
       y="952.36218"
       x="50"
       height="50"
       width="50"
       id="rect3757"
       style="fill:#006da4;fill-opacity:1;stroke:none;opacity:0.613"
       inkscape:export-filename="/home/samuel/Dropbox/ETH/eprog/serie10/A10/gfx/tiles/bw/full_water.png"
       inkscape:export-xdpi="90"
       inkscape:export-ydpi="90" />
    <path
       style="fill:#ffffff;fill-opacity:1;stroke:none"
       d="m 100,1002.3622 50,0 0,5 -8.0665,6.0837 -4.96921,3.9163 -7.5,3.2143 -5.81281,5.8251 -6.59482,-0.8621 -8.91626,1.2808 -8.1404,5.5419 z"
       id="rect3759"
       inkscape:connector-curvature="0"
       sodipodi:nodetypes="ccccccccccc"
       inkscape:export-filename="/home/samuel/Dropbox/ETH/eprog/serie10/A10/gfx/tiles/bw/bottom_right.png"
       inkscape:export-xdpi="90"
       inkscape:export-ydpi="90" />
    <path
       style="fill:#ffffff;fill-opacity:1;stroke:none"
       d="m 50,1002.3622 49.999995,0 0,30 -8.03571,3.0357 -5.357142,-3.2143 -6.785715,2.1429 -5.215423,-3.6548 -5.498862,1.1548 -4.464286,3.3928 -5.535714,-2.8571 -4.285714,0.8929 L 50,1032.3622 z"
       id="rect3761"
       inkscape:connector-curvature="0"
       sodipodi:nodetypes="ccccccccccccc"
       inkscape:export-filename="/home/samuel/Dropbox/ETH/eprog/serie10/A10/gfx/tiles/bw/bottom_center.png"
       inkscape:export-xdpi="90"
       inkscape:export-ydpi="90" />
    <path
       style="fill:#ffffff;fill-opacity:1;stroke:none"
       d="m 0,1002.3622 50,0 0,30 -4.402714,-1.7611 -6.828815,-0.1601 -7.056655,-5.3941 -6.50862,2.4323 -6.619459,-2.8264 -1.034483,-5.2709 -9.846059,0.9544 L 0,1007.3622 z"
       id="rect3763"
       inkscape:connector-curvature="0"
       sodipodi:nodetypes="cccccccccccc"
       inkscape:export-filename="/home/samuel/Dropbox/ETH/eprog/serie10/A10/gfx/tiles/bw/bottom_left.png"
       inkscape:export-xdpi="90"
       inkscape:export-ydpi="90" />
    <path
       style="fill:#ffffff;fill-opacity:1;stroke:none"
       d="m 1.25,953.79075 6.4285714,-1.42857 42.3214286,0 0,50.00002 -50,0 0,-42.14288 z"
       id="rect3765"
       inkscape:connector-curvature="0"
       sodipodi:nodetypes="ccccccc"
       inkscape:export-filename="/home/samuel/Dropbox/ETH/eprog/serie10/A10/gfx/tiles/bw/left_ground.png"
       inkscape:export-xdpi="90"
       inkscape:export-ydpi="90" />
    <path
       style="fill:#ffffff;fill-opacity:1;stroke:none"
       d="m 100,952.36218 41.60715,0 7.14285,0.53571 1.25,7.85714 0,41.60717 -50,0 z"
       id="rect3767"
       inkscape:connector-curvature="0"
       sodipodi:nodetypes="ccccccc"
       inkscape:export-filename="/home/samuel/Dropbox/ETH/eprog/serie10/A10/gfx/tiles/bw/right_ground.png"
       inkscape:export-xdpi="90"
       inkscape:export-ydpi="90" />
    <path
       sodipodi:nodetypes="cccccc"
       inkscape:connector-curvature="0"
       id="path3024"
       d="m 50,912.36218 c 5,15 20,15 25,0 5,15 20,15 25,0 l 0,40 -50,0 z"
       style="fill:#006da4;fill-opacity:1;stroke:none;opacity:0.613"
       inkscape:export-filename="/home/samuel/Dropbox/ETH/eprog/serie10/A10/gfx/tiles/bw/water.png"
       inkscape:export-xdpi="90"
       inkscape:export-ydpi="90" />
    <path
       sodipodi:nodetypes="ccccccccccccc"
       inkscape:connector-curvature="0"
       id="path3026"
       d="m 100,902.36218 50,0 0,5 -3.25,17.75 -9.89285,-1.6786 -5.28572,9.7679 -7.84042,4.2202 -5.62386,-13.5952 -3.46429,11.3928 -5.53571,-2.8571 -4.10715,-15 -5,-10 z"
       style="fill:#ffffff;fill-opacity:1;stroke:none" />
  </g>
</svg>
