<?xml version="1.0" encoding="UTF-8" standalone="no"?>
<!-- Created with Inkscape (http://www.inkscape.org/) -->

<svg
   xmlns:dc="http://purl.org/dc/elements/1.1/"
   xmlns:cc="http://creativecommons.org/ns#"
   xmlns:rdf="http://www.w3.org/1999/02/22-rdf-syntax-ns#"
   xmlns:svg="http://www.w3.org/2000/svg"
   xmlns="http://www.w3.org/2000/svg"
   xmlns:xlink="http://www.w3.org/1999/xlink"
   xmlns:sodipodi="http://sodipodi.sourceforge.net/DTD/sodipodi-0.dtd"
   xmlns:inkscape="http://www.inkscape.org/namespaces/inkscape"
   width="50"
   height="50"
   id="svg2"
   version="1.1"
   inkscape:version="0.48.0 r9654"
   inkscape:export-filename="/home/samuel/projects/eiffel/A10/gfx/tiles/ground_flat.png"
   inkscape:export-xdpi="90"
   inkscape:export-ydpi="90"
   sodipodi:docname="Neues Dokument 1">
  <defs
     id="defs4">
    <linearGradient
       id="linearGradient3802">
      <stop
         style="stop-color:#367f0e;stop-opacity:1;"
         offset="0"
         id="stop3804" />
      <stop
         style="stop-color:#91ed5f;stop-opacity:1;"
         offset="1"
         id="stop3806" />
    </linearGradient>
    <linearGradient
       inkscape:collect="always"
       xlink:href="#linearGradient3802"
       id="linearGradient3808"
       x1="24.65625"
       y1="1027.7188"
       x2="24.65625"
       y2="1025.7188"
       gradientUnits="userSpaceOnUse"
       gradientTransform="matrix(1,0,0,1.00005,0,-0.05137839)" />
    <filter
       inkscape:collect="always"
       id="filter3828">
      <feGaussianBlur
         inkscape:collect="always"
         stdDeviation="0.55025969"
         id="feGaussianBlur3830" />
    </filter>
  </defs>
  <sodipodi:namedview
     id="base"
     pagecolor="#ffffff"
     bordercolor="#666666"
     borderopacity="1.0"
     inkscape:pageopacity="0.0"
     inkscape:pageshadow="2"
     inkscape:zoom="15.839192"
     inkscape:cx="39.362177"
     inkscape:cy="25.78987"
     inkscape:document-units="px"
     inkscape:current-layer="layer1"
     showgrid="true"
     inkscape:snap-grids="true"
     fit-margin-top="0"
     fit-margin-left="0"
     fit-margin-right="0"
     fit-margin-bottom="0"
     inkscape:window-width="1680"
     inkscape:window-height="1022"
     inkscape:window-x="0"
     inkscape:window-y="0"
     inkscape:window-maximized="1">
    <inkscape:grid
       type="xygrid"
       id="grid2985"
       empspacing="5"
       visible="true"
       enabled="true"
       snapvisiblegridlinesonly="true" />
  </sodipodi:namedview>
  <metadata
     id="metadata7">
    <rdf:RDF>
      <cc:Work
         rdf:about="">
        <dc:format>image/svg+xml</dc:format>
        <dc:type
           rdf:resource="http://purl.org/dc/dcmitype/StillImage" />
        <dc:title></dc:title>
      </cc:Work>
    </rdf:RDF>
  </metadata>
  <g
     inkscape:label="Ebene 1"
     inkscape:groupmode="layer"
     id="layer1"
     transform="translate(0.34375,-1002.7187)">
    <rect
       style="fill:#aad2f8;fill-opacity:1;stroke:none"
       id="rect2987"
       width="50"
       height="49.999203"
       x="-0.34375"
       y="1002.7187"
       ry="0" />
    <rect
       style="fill:#81501c;fill-opacity:1;fill-rule:evenodd;stroke:none"
       id="rect3757"
       width="50"
       height="25"
       x="0"
       y="25"
       transform="translate(-0.34375,1002.7187)" />
    <rect
       y="1027.7188"
       x="-0.34375"
       height="0"
       width="50"
       id="rect3761"
       style="fill:#48ab13;fill-opacity:1;fill-rule:evenodd;stroke:none" />
    <path
       sodipodi:nodetypes="czzzzzzzzzzzccc"
       inkscape:connector-curvature="0"
       id="path3810"
       d="m -5.34375,1028.7187 0,10 c 0,0 3.987318,0.8337 6,0 2.012682,-0.8337 2.6429774,-5 5,-5 2.3570226,0 2.6429774,5 5,5 2.357023,0 1.997377,-5.4873 5,-5 3.002623,0.4873 1.27322,10 5,10 3.72678,0 1.997377,-9.5127 5,-10 3.002623,-0.4873 2.642977,5 5,5 2.357023,0 2.266827,-5.3113 5,-5 2.733173,0.3113 1.85534,8 5,8 3.14466,0 2.266827,-7.6887 5,-8 2.733173,-0.3113 3.141298,4.2301 5,5 1.858702,0.7699 5,0 5,0 l 0,-10"
       style="opacity:0.46710526;fill:#000000;fill-opacity:1;stroke:#000000;stroke-width:1px;stroke-linecap:butt;stroke-linejoin:miter;stroke-opacity:1;filter:url(#filter3828)" />
    <path
       style="fill:#48ab13;fill-opacity:1;stroke:#1e4708;stroke-width:1px;stroke-linecap:butt;stroke-linejoin:miter;stroke-opacity:1"
       d="m -6,25 0,10 c 0,0 3.987318,0.83368 6,0 2.012682,-0.83368 2.6429774,-5 5,-5 2.3570226,0 2.6429774,5 5,5 2.357023,0 1.997377,-5.487259 5,-5 3.002623,0.487259 1.27322,10 5,10 3.72678,0 1.997377,-9.512741 5,-10 3.002623,-0.487259 2.642977,5 5,5 2.357023,0 2.266827,-5.311276 5,-5 2.733173,0.311276 1.85534,8 5,8 3.14466,0 2.266827,-7.688724 5,-8 2.733173,-0.311276 3.141298,4.2301 5,5 1.858702,0.7699 5,0 5,0 l 0,-10"
       id="path3765"
       inkscape:connector-curvature="0"
       sodipodi:nodetypes="czzzzzzzzzzzccc"
       transform="translate(-0.34375,1002.7187)" />
    <rect
       y="1025.7188"
       x="-0.34375"
       height="2.000139"
       width="50"
       id="rect3763"
       style="fill:url(#linearGradient3808);fill-opacity:1;fill-rule:evenodd;stroke:none" />
  </g>
</svg>
